<?xml version="1.0" encoding="UTF-8" standalone="no"?>
<!-- Created with Inkscape (http://www.inkscape.org/) -->

<svg
   width="205.87265mm"
   height="52.840229mm"
   viewBox="0 0 205.87265 52.84023"
   version="1.1"
   id="svg5"
   xml:space="preserve"
   inkscape:version="1.2.2 (b0a8486541, 2022-12-01)"
   sodipodi:docname="torchdrive-dark.svg"
   xmlns:inkscape="http://www.inkscape.org/namespaces/inkscape"
   xmlns:sodipodi="http://sodipodi.sourceforge.net/DTD/sodipodi-0.dtd"
   xmlns:xlink="http://www.w3.org/1999/xlink"
   xmlns="http://www.w3.org/2000/svg"
   xmlns:svg="http://www.w3.org/2000/svg"><sodipodi:namedview
     id="namedview7"
     pagecolor="#000000"
     bordercolor="#666666"
     borderopacity="1.0"
     inkscape:showpageshadow="2"
     inkscape:pageopacity="0"
     inkscape:pagecheckerboard="0"
     inkscape:deskcolor="#d1d1d1"
     inkscape:document-units="mm"
     showgrid="false"
     inkscape:zoom="2.1740119"
     inkscape:cx="298.98641"
     inkscape:cy="136.61379"
     inkscape:window-width="3000"
     inkscape:window-height="1980"
     inkscape:window-x="0"
     inkscape:window-y="0"
     inkscape:window-maximized="1"
     inkscape:current-layer="layer1" /><defs
     id="defs2"><linearGradient
       inkscape:collect="always"
       id="linearGradient8011"><stop
         style="stop-color:#ff6600;stop-opacity:1;"
         offset="0"
         id="stop8007" /><stop
         style="stop-color:#c62d00;stop-opacity:1;"
         offset="1"
         id="stop8009" /></linearGradient><rect
       x="3.7189958"
       y="386.09158"
       width="494.32962"
       height="142.99611"
       id="rect6385" /><inkscape:path-effect
       effect="fill_between_many"
       method="originald"
       linkedpaths="#path243-3,0,1|#path243,0,1"
       id="path-effect267"
       is_visible="true"
       lpeversion="0"
       join="true"
       close="true"
       autoreverse="true" /><rect
       x="3.7189958"
       y="386.09158"
       width="381.57883"
       height="141.22395"
       id="rect6385-6" /><linearGradient
       inkscape:collect="always"
       xlink:href="#linearGradient8011"
       id="linearGradient8013"
       x1="95.733544"
       y1="26.908171"
       x2="204.45534"
       y2="26.908171"
       gradientUnits="userSpaceOnUse" /></defs><g
     inkscape:label="Layer 1"
     inkscape:groupmode="layer"
     id="layer1"
     transform="translate(0.47820387,-0.386943)"><path
       inkscape:original-d="M 0,0"
       inkscape:path-effect="#path-effect267"
       d="M 0,0"
       id="path269"
       class="UnoptimicedTransforms" /><path
       id="path4139"
       style="fill:#d45500;fill-opacity:0;stroke:#ffffff;stroke-width:2;stroke-linecap:round;stroke-linejoin:round;stroke-dasharray:none;stroke-opacity:1"
       d="m 71.262317,1.386992 v 0.0062 a 36.972549,25.419653 0 0 1 0.219108,-0.0052 36.972549,25.419653 0 0 1 36.972425,25.419641 36.972549,25.419653 0 0 1 -36.845818,25.41654 h 25.333854 a 36.972549,25.419653 0 0 0 0.126608,0.003 36.972549,25.419653 0 0 0 0.126607,-0.003 h 0.297656 v -0.007 a 36.972549,25.419653 0 0 0 32.154113,-13.42244 c 15.45962,-2.85373 43.47278,-2.8998 52.90943,-3.50727 12.22074,-0.78669 21.83846,-5.74126 21.83846,-5.74126 l -70.6391,0.3235 a 36.972549,25.419653 0 0 0 0.28525,-3.06183 36.972549,25.419653 0 0 0 -0.25424,-2.86081 l 70.60809,0.32298 c 0,0 -9.61772,-4.95456 -21.83846,-5.74125 -9.39723,-0.60494 -37.21401,-0.65365 -52.71306,-3.47214 A 36.972549,25.419653 0 0 0 97.492757,1.391643 v -0.0047 z m 0,50.835141 v 0.002 h 0.0925 a 36.972549,25.419653 0 0 1 -0.0925,-0.002 z" /><path
       id="rect326"
       style="fill:#7c0000;fill-opacity:1;stroke:#ffffff;stroke-width:1.5;stroke-linecap:round;stroke-linejoin:round;stroke-dasharray:none;stroke-opacity:0"
       d="m 71.262317,1.386992 v 0.0062 a 36.972549,25.419653 0 0 1 0.219108,-0.0052 36.972549,25.419653 0 0 1 36.972425,25.419641 36.972549,25.419653 0 0 1 -36.845818,25.41654 h 25.333854 a 36.972549,25.419653 0 0 0 0.126608,0.003 36.972549,25.419653 0 0 0 0.126607,-0.003 h 0.297656 v -0.007 A 36.972549,25.419653 0 0 0 134.04091,26.807663 36.972549,25.419653 0 0 0 97.492757,1.391643 v -0.0047 z m 0,50.835141 v 0.002 h 0.0925 a 36.972549,25.419653 0 0 1 -0.0925,-0.002 z" /><path
       id="path4035"
       style="fill:url(#linearGradient8013);fill-opacity:1;stroke:#000000;stroke-width:0.264583px;stroke-linecap:butt;stroke-linejoin:miter;stroke-opacity:0"
       d="m 95.783301,4.14548 c 14.133239,5.737035 16.937469,19.704743 16.937469,19.704743 l 91.67399,0.41961 c 0,0 -9.61772,-4.95456 -21.83846,-5.74125 -12.22074,-0.7867 -55.61712,-0.62696 -62.52383,-6.85075 C 113.73995,6.007527 95.783301,4.14548 95.783301,4.14548 Z m 108.611459,25.400513 -91.67399,0.41962 c 0,0 -2.80423,13.96821 -16.937469,19.70525 0,0 17.956649,-1.86255 24.249169,-7.53287 6.90671,-6.22378 50.30309,-6.06405 62.52383,-6.85074 12.22074,-0.78669 21.83846,-5.74126 21.83846,-5.74126 z" /><g
       id="g7933"
       transform="translate(0,-90.440853)"><text
         xml:space="preserve"
         transform="matrix(0.26458333,0,0,0.26458333,-0.00764783,0.5567078)"
         id="text6383"
         style="font-style:normal;font-weight:normal;font-size:70.6667px;line-height:1.25;font-family:sans-serif;letter-spacing:0px;word-spacing:0px;white-space:pre;shape-inside:url(#rect6385);display:inline;fill:#000000;fill-opacity:1;stroke:none"><tspan
           x="3.71875"
           y="451.49167"
           id="tspan13163"><tspan
             style="font-style:italic;font-weight:900;font-family:Inter;-inkscape-font-specification:'Inter Heavy Italic';fill:#ffffff"
             id="tspan13161">PYTORCH</tspan></tspan></text><text
         xml:space="preserve"
         transform="matrix(0.26458333,0,0,0.26458333,-1.5433021,18.192738)"
         id="text6383-7"
         style="font-style:normal;font-weight:normal;font-size:32px;line-height:1.25;font-family:sans-serif;letter-spacing:0px;word-spacing:0px;white-space:pre;shape-inside:url(#rect6385-6);display:inline;fill:#000000;fill-opacity:1;stroke:none"><tspan
           x="3.71875"
           y="415.70682"
           id="tspan13167"><tspan
             style="font-style:italic;font-weight:800;font-family:Inter;-inkscape-font-specification:'Inter Ultra-Bold Italic';fill:#ffffff"
             id="tspan13165">DRIVE TECHNOLOGIES</tspan></tspan></text></g></g></svg>
