<?xml version="1.0" encoding="UTF-8" standalone="no"?>
<!-- Created with Inkscape (http://www.inkscape.org/) -->

<svg
   width="220.23006mm"
   height="66.801071mm"
   viewBox="0 0 220.23006 66.801072"
   version="1.1"
   id="svg5"
   xml:space="preserve"
   xmlns:xlink="http://www.w3.org/1999/xlink"
   xmlns="http://www.w3.org/2000/svg"
   xmlns:svg="http://www.w3.org/2000/svg"><defs
     id="defs2"><linearGradient
       id="linearGradient8011"><stop
         style="stop-color:#ff6600;stop-opacity:1;"
         offset="0"
         id="stop8007" /><stop
         style="stop-color:#c62d00;stop-opacity:1;"
         offset="1"
         id="stop8009" /></linearGradient><rect
       x="3.7189958"
       y="386.09158"
       width="494.32962"
       height="142.99611"
       id="rect6385" /><rect
       x="3.7189958"
       y="386.09158"
       width="381.57883"
       height="141.22395"
       id="rect6385-6" /><linearGradient
       xlink:href="#linearGradient8011"
       id="linearGradient8013"
       x1="95.733543"
       y1="26.908171"
       x2="204.45534"
       y2="26.908171"
       gradientUnits="userSpaceOnUse" /><rect
       x="3.7189958"
       y="386.09158"
       width="381.57883"
       height="141.22395"
       id="rect6385-6-3" /></defs><g
     id="layer1"
     transform="translate(7.5927782,6.477828)"><rect
       style="fill:#1e1e1e;fill-opacity:1;stroke:#000000;stroke-width:1;stroke-linecap:round;stroke-linejoin:round;stroke-dasharray:none;stroke-opacity:1;paint-order:stroke markers fill"
       id="rect16871"
       width="219.23004"
       height="65.801071"
       x="-7.0927782"
       y="-5.977828"
       ry="8.254468" /><path
       d="M 0,0"
       id="path269"
       class="UnoptimicedTransforms" /><g
       id="g16806"
       transform="translate(0.06412239,0.11564957)"><path
         id="path4139"
         style="fill:#d45500;fill-opacity:0;stroke:#ffffff;stroke-width:2;stroke-linecap:round;stroke-linejoin:round;stroke-dasharray:none;stroke-opacity:1"
         d="m 71.262317,1.386992 v 0.0062 a 36.972549,25.419653 0 0 1 0.219108,-0.0052 36.972549,25.419653 0 0 1 36.972425,25.419641 36.972549,25.419653 0 0 1 -36.845818,25.41654 h 25.333854 a 36.972549,25.419653 0 0 0 0.126608,0.003 36.972549,25.419653 0 0 0 0.126607,-0.003 h 0.297656 v -0.007 a 36.972549,25.419653 0 0 0 32.154113,-13.42244 c 15.45962,-2.85373 43.47278,-2.8998 52.90943,-3.50727 12.22074,-0.78669 21.83846,-5.74126 21.83846,-5.74126 l -70.6391,0.3235 a 36.972549,25.419653 0 0 0 0.28525,-3.06183 36.972549,25.419653 0 0 0 -0.25424,-2.86081 l 70.60809,0.32298 c 0,0 -9.61772,-4.95456 -21.83846,-5.74125 -9.39723,-0.60494 -37.21401,-0.65365 -52.71306,-3.47214 A 36.972549,25.419653 0 0 0 97.492757,1.391643 v -0.0047 z m 0,50.835141 v 0.002 h 0.0925 a 36.972549,25.419653 0 0 1 -0.0925,-0.002 z" /><path
         id="rect326"
         style="fill:#7c0000;fill-opacity:1;stroke:#ffffff;stroke-width:1.5;stroke-linecap:round;stroke-linejoin:round;stroke-dasharray:none;stroke-opacity:0"
         d="m 71.262317,1.386992 v 0.0062 a 36.972549,25.419653 0 0 1 0.219108,-0.0052 36.972549,25.419653 0 0 1 36.972425,25.419641 36.972549,25.419653 0 0 1 -36.845818,25.41654 h 25.333854 a 36.972549,25.419653 0 0 0 0.126608,0.003 36.972549,25.419653 0 0 0 0.126607,-0.003 h 0.297656 v -0.007 A 36.972549,25.419653 0 0 0 134.04091,26.807663 36.972549,25.419653 0 0 0 97.492757,1.391643 v -0.0047 z m 0,50.835141 v 0.002 h 0.0925 a 36.972549,25.419653 0 0 1 -0.0925,-0.002 z" /><path
         id="path4035"
         style="fill:url(#linearGradient8013);fill-opacity:1;stroke:#000000;stroke-width:0.264583px;stroke-linecap:butt;stroke-linejoin:miter;stroke-opacity:0"
         d="m 95.783301,4.14548 c 14.133239,5.737035 16.937469,19.704743 16.937469,19.704743 l 91.67399,0.41961 c 0,0 -9.61772,-4.95456 -21.83846,-5.74125 -12.22074,-0.7867 -55.61712,-0.62696 -62.52383,-6.85075 C 113.73995,6.007527 95.783301,4.14548 95.783301,4.14548 Z m 108.611459,25.400513 -91.67399,0.41962 c 0,0 -2.80423,13.96821 -16.937469,19.70525 0,0 17.956649,-1.86255 24.249169,-7.53287 6.90671,-6.22378 50.30309,-6.06405 62.52383,-6.85074 12.22074,-0.78669 21.83846,-5.74126 21.83846,-5.74126 z" /></g><g
       aria-label="PYTORCH"
       transform="matrix(0.26458333,0,0,0.26458333,0.05647456,-89.768495)"
       id="text6383"
       style="font-size:70.6667px;line-height:1.25;letter-spacing:0px;word-spacing:0px;white-space:pre;shape-inside:url(#rect6385);display:inline"><path
         d="M 3.8191288,451.49167 12.35133,400.09771 h 22.183723 q 5.721594,0 9.636369,2.25852 3.914775,2.25853 5.621215,6.34896 1.70644,4.09044 0.803031,9.56109 -0.90341,5.57102 -4.015154,9.61127 -3.086649,4.01516 -7.879739,6.19839 -4.767995,2.15815 -10.690346,2.15815 h -7.678981 l -2.559661,15.25758 z M 22.138267,425.39318 h 4.868374 q 3.764206,0 6.123109,-1.9072 2.383997,-1.9072 2.910986,-5.2197 0.526989,-3.3125 -1.204546,-5.16951 -1.731535,-1.85701 -5.420457,-1.85701 H 24.49717 Z"
         style="font-style:italic;font-weight:900;font-family:Inter;-inkscape-font-specification:'Inter Heavy Italic';fill:#ffffff"
         id="path985" /><path
         d="m 56.618397,400.09771 h 15.55872 l 6.524625,20.8788 h 0.501894 L 92.6544,400.09771 h 15.55872 l -24.693194,35.23297 -2.710229,16.16099 H 66.957418 l 2.710228,-16.16099 z"
         style="font-style:italic;font-weight:900;font-family:Inter;-inkscape-font-specification:'Inter Heavy Italic';fill:#ffffff"
         id="path987" /><path
         d="m 112.62972,411.34014 1.9072,-11.24243 h 44.66858 l -1.9072,11.24243 h -15.45834 l -6.625,40.15153 h -13.7519 l 6.625,-40.15153 z"
         style="font-style:italic;font-weight:900;font-family:Inter;-inkscape-font-specification:'Inter Heavy Italic';fill:#ffffff"
         id="path989" /><path
         d="m 207.38736,426.6981 q -1.4053,8.38163 -5.57103,14.05304 -4.16572,5.6714 -10.11316,8.55729 -5.94745,2.8859 -12.72302,2.8859 -7.22728,0 -12.54736,-3.13684 -5.32007,-3.13684 -7.75426,-9.18467 -2.43419,-6.04782 -0.9787,-14.78078 1.35512,-8.38163 5.52084,-14.10323 4.16572,-5.72159 10.16336,-8.65767 5.99763,-2.93608 12.8234,-2.93608 7.17708,0 12.47207,3.16193 5.32007,3.16193 7.72917,9.25995 2.43418,6.09801 0.97869,14.88116 z m -14.05304,-1.60606 q 1.05398,-6.625 -0.85322,-10.08807 -1.8821,-3.46307 -6.77557,-3.46307 -5.57102,0 -9.20976,4.01515 -3.61364,3.99006 -4.7429,11.14205 -1.20454,6.70029 0.85322,10.03788 2.05777,3.31251 6.87595,3.31251 5.49574,0 9.05919,-3.88968 3.58855,-3.91478 4.79309,-11.06677 z"
         style="font-style:italic;font-weight:900;font-family:Inter;-inkscape-font-specification:'Inter Heavy Italic';fill:#ffffff"
         id="path991" /><path
         d="m 209.69604,451.49167 8.5322,-51.39396 h 22.18372 q 5.72159,0 9.66146,2.08286 3.93987,2.08286 5.67141,5.99763 1.73153,3.91478 0.82812,9.38543 -0.87831,5.34517 -3.81439,9.05919 -2.91099,3.71401 -7.35275,5.6965 l 7.25237,19.17235 h -15.15721 l -6.19839,-16.96402 h -4.81818 l -2.83571,16.96402 z m 18.59518,-27.80493 h 4.89346 q 3.68893,0 5.99764,-1.40531 2.30871,-1.4053 2.8357,-4.7178 0.52699,-3.31251 -1.30492,-4.81819 -1.80682,-1.50568 -5.42046,-1.50568 h -4.91856 z"
         style="font-style:italic;font-weight:900;font-family:Inter;-inkscape-font-specification:'Inter Heavy Italic';fill:#ffffff"
         id="path993" /><path
         d="m 310.82773,419.37045 h -13.95266 q 0.27605,-3.53836 -1.43039,-5.67141 -1.68135,-2.15814 -5.49575,-2.15814 -5.52083,0 -9.20975,4.04024 -3.66383,4.01516 -4.84328,11.01658 -1.07908,6.77557 0.9285,10.11317 2.03267,3.3376 6.80067,3.3376 4.19081,0 7.02652,-1.9323 2.8357,-1.95738 3.91477,-5.1946 h 14.05304 q -0.80303,3.26231 -2.8608,6.67519 -2.05777,3.38779 -5.32008,6.24858 -3.26231,2.83571 -7.67898,4.59234 -4.41667,1.75663 -9.9375,1.75663 -7.22728,0 -12.47207,-3.16194 -5.2197,-3.16193 -7.57861,-9.23485 -2.3338,-6.07292 -0.9285,-14.80588 1.4053,-8.43182 5.54593,-14.12832 4.14063,-5.6965 10.06298,-8.58239 5.92235,-2.88589 12.59754,-2.88589 6.72538,0 11.54357,2.3338 4.84328,2.33381 7.27746,6.80067 2.45929,4.46686 1.95739,10.84092 z"
         style="font-style:italic;font-weight:900;font-family:Inter;-inkscape-font-specification:'Inter Heavy Italic';fill:#ffffff"
         id="path995" /><path
         d="m 311.88166,451.49167 8.5322,-51.39396 h 13.95266 l -3.3125,20.07577 h 18.4697 l 3.31251,-20.07577 h 13.95265 l -8.5322,51.39396 h -13.95266 l 3.31251,-20.07576 h -18.46971 l -3.3125,20.07576 z"
         style="font-style:italic;font-weight:900;font-family:Inter;-inkscape-font-specification:'Inter Heavy Italic';fill:#ffffff"
         id="path997" /></g><g
       aria-label="DRIVE TECHNOLOGIES"
       transform="matrix(0.26458333,0,0,0.26458333,-1.4791797,-72.132465)"
       id="text6383-7"
       style="font-size:32px;line-height:1.25;letter-spacing:0px;word-spacing:0px;white-space:pre;shape-inside:url(#rect6385-6);display:inline"><path
         d="M 12.752841,415.70682 H 4.0255682 l 3.8636363,-23.27273 h 8.4659095 q 3.556818,0 5.920454,1.44318 2.363637,1.43182 3.340909,4.10228 0.988637,2.67045 0.375,6.375 -0.590909,3.56818 -2.375,6.11363 -1.784091,2.54546 -4.556818,3.89773 -2.761364,1.34091 -6.306818,1.34091 z m -2.306818,-4.79545 h 2.659091 q 2.931818,0 4.829545,-1.63637 1.909091,-1.63636 2.534091,-5.5 0.613636,-3.67045 -0.670455,-5.10227 -1.28409,-1.44318 -4.28409,-1.44318 H 12.71875 Z"
         style="font-style:italic;font-weight:800;font-family:Inter;-inkscape-font-specification:'Inter Ultra-Bold Italic';fill:#ffffff"
         id="path950" /><path
         d="m 27.389216,415.70682 3.863636,-23.27273 h 9.613636 q 3.931819,0 5.863637,2.07955 1.931818,2.07954 1.329545,5.67045 -0.386363,2.40909 -1.727273,4.10228 -1.340909,1.68181 -3.40909,2.55681 l 3.363636,8.86364 h -6.136364 l -2.931818,-7.96591 h -2.875 l -1.329545,7.96591 z m 7.693181,-12.39773 h 2.772728 q 1.897727,0 3.011363,-0.75 1.113637,-0.76136 1.375,-2.375 0.511364,-3.21591 -3.329545,-3.21591 h -2.772727 z"
         style="font-style:italic;font-weight:800;font-family:Inter;-inkscape-font-specification:'Inter Ultra-Bold Italic';fill:#ffffff"
         id="path952" /><path
         d="m 58.309676,392.43409 -3.863637,23.27273 h -5.625 l 3.863637,-23.27273 z"
         style="font-style:italic;font-weight:800;font-family:Inter;-inkscape-font-specification:'Inter Ultra-Bold Italic';fill:#ffffff"
         id="path954" /><path
         d="m 67.116472,392.43409 2.375,17.04546 h 0.193182 l 8.03409,-17.04546 h 6.295455 L 72.29829,415.70682 h -7.488636 l -3.988637,-23.27273 z"
         style="font-style:italic;font-weight:800;font-family:Inter;-inkscape-font-specification:'Inter Ultra-Bold Italic';fill:#ffffff"
         id="path956" /><path
         d="m 82.661921,415.70682 3.863636,-23.27273 h 16.227273 l -0.77273,4.56818 H 91.37783 l -0.772727,4.77273 h 9.772727 l -0.772727,4.57955 h -9.772728 l -0.772727,4.78409 h 10.602273 l -0.772728,4.56818 z"
         style="font-style:italic;font-weight:800;font-family:Inter;-inkscape-font-specification:'Inter Ultra-Bold Italic';fill:#ffffff"
         id="path958" /><path
         d="m 111.62782,397.00227 0.77273,-4.56818 H 132.071 l -0.77273,4.56818 h -7.05681 l -3.09091,18.70455 h -5.54546 l 3.09091,-18.70455 z"
         style="font-style:italic;font-weight:800;font-family:Inter;-inkscape-font-specification:'Inter Ultra-Bold Italic';fill:#ffffff"
         id="path960" /><path
         d="m 130.96874,415.70682 3.86364,-23.27273 h 16.22727 l -0.77272,4.56818 h -10.60228 l -0.77272,4.77273 h 9.77272 l -0.77272,4.57955 h -9.77273 l -0.77273,4.78409 h 10.60227 l -0.77272,4.56818 z"
         style="font-style:italic;font-weight:800;font-family:Inter;-inkscape-font-specification:'Inter Ultra-Bold Italic';fill:#ffffff"
         id="path962" /><path
         d="m 174.28693,400.86591 h -5.61364 q 0.0909,-1.76136 -0.85227,-2.78409 -0.94318,-1.03409 -2.77273,-1.03409 -2.63636,0 -4.5,1.94318 -1.86364,1.94318 -2.44318,5.40909 -0.53409,3.35227 0.54545,5.02273 1.07955,1.67045 3.42046,1.67045 2,0 3.45454,-0.95454 1.45455,-0.96591 2.02273,-2.61364 h 5.65909 q -0.42045,1.54546 -1.375,3.05682 -0.95454,1.5 -2.42045,2.73864 -1.45455,1.22727 -3.375,1.96591 -1.92046,0.73863 -4.27273,0.73863 -3.22727,0 -5.54546,-1.44318 -2.31818,-1.44318 -3.35227,-4.18182 -1.02273,-2.75 -0.38636,-6.65909 0.625,-3.78409 2.47727,-6.375 1.85227,-2.59091 4.5,-3.92045 2.64773,-1.32955 5.65909,-1.32955 2.90909,0 5.02273,1.03409 2.125,1.02273 3.21591,2.97727 1.10227,1.95455 0.93182,4.73864 z"
         style="font-style:italic;font-weight:800;font-family:Inter;-inkscape-font-specification:'Inter Ultra-Bold Italic';fill:#ffffff"
         id="path964" /><path
         d="m 175.04827,415.70682 3.86364,-23.27273 h 5.625 l -1.54545,9.34091 h 9.17045 l 1.54545,-9.34091 h 5.61364 l -3.86364,23.27273 h -5.61363 l 1.54545,-9.35227 h -9.17045 l -1.54546,9.35227 z"
         style="font-style:italic;font-weight:800;font-family:Inter;-inkscape-font-specification:'Inter Ultra-Bold Italic';fill:#ffffff"
         id="path966" /><path
         d="m 222.65055,392.43409 -3.86363,23.27273 h -4.77273 L 207.00282,402.275 h -0.15909 l -2.23863,13.43182 h -5.625 l 3.86363,-23.27273 h 4.84091 l 6.95455,13.40909 h 0.19318 l 2.20455,-13.40909 z"
         style="font-style:italic;font-weight:800;font-family:Inter;-inkscape-font-specification:'Inter Ultra-Bold Italic';fill:#ffffff"
         id="path968" /><path
         d="m 246.15053,404.43409 q -0.625,3.76137 -2.48863,6.35228 -1.85227,2.57954 -4.51137,3.90909 -2.65909,1.32954 -5.70454,1.32954 -3.21591,0 -5.56818,-1.43182 -2.35228,-1.43181 -3.42046,-4.17045 -1.05682,-2.73864 -0.40909,-6.64773 0.61364,-3.76136 2.46591,-6.36363 1.86364,-2.60228 4.53409,-3.94319 2.68182,-1.35227 5.75,-1.35227 3.20455,0 5.54546,1.44318 2.34091,1.44318 3.39772,4.19318 1.05682,2.75 0.40909,6.68182 z m -5.625,-0.65909 q 0.5341,-3.29545 -0.51136,-5.01136 -1.03409,-1.71591 -3.43182,-1.71591 -2.67045,0 -4.51136,1.94318 -1.82955,1.93182 -2.39773,5.44318 -0.59091,3.31818 0.51137,4.98864 1.10227,1.67045 3.4659,1.67045 2.63637,0 4.45455,-1.89772 1.82955,-1.90909 2.42045,-5.42046 z"
         style="font-style:italic;font-weight:800;font-family:Inter;-inkscape-font-specification:'Inter Ultra-Bold Italic';fill:#ffffff"
         id="path970" /><path
         d="m 247.54827,415.70682 3.86364,-23.27273 h 5.625 l -3.09091,18.70455 h 9.68182 l -0.77273,4.56818 z"
         style="font-style:italic;font-weight:800;font-family:Inter;-inkscape-font-specification:'Inter Ultra-Bold Italic';fill:#ffffff"
         id="path972" /><path
         d="m 288.69595,404.43409 q -0.625,3.76137 -2.48864,6.35228 -1.85227,2.57954 -4.51136,3.90909 -2.6591,1.32954 -5.70455,1.32954 -3.21591,0 -5.56818,-1.43182 -2.35227,-1.43181 -3.42046,-4.17045 -1.05681,-2.73864 -0.40909,-6.64773 0.61364,-3.76136 2.46591,-6.36363 1.86364,-2.60228 4.53409,-3.94319 2.68182,-1.35227 5.75,-1.35227 3.20455,0 5.54546,1.44318 2.34091,1.44318 3.39772,4.19318 1.05682,2.75 0.4091,6.68182 z m -5.625,-0.65909 q 0.53409,-3.29545 -0.51137,-5.01136 -1.03409,-1.71591 -3.43182,-1.71591 -2.67045,0 -4.51136,1.94318 -1.82955,1.93182 -2.39773,5.44318 -0.59091,3.31818 0.51137,4.98864 1.10227,1.67045 3.46591,1.67045 2.63636,0 4.45454,-1.89772 1.82955,-1.90909 2.42046,-5.42046 z"
         style="font-style:italic;font-weight:800;font-family:Inter;-inkscape-font-specification:'Inter Ultra-Bold Italic';fill:#ffffff"
         id="path974" /><path
         d="m 307.96868,400.03637 q -0.13636,-1.42046 -1,-2.20455 -0.85227,-0.78409 -2.54545,-0.78409 -2.53409,0 -4.44318,1.82954 -1.89773,1.82955 -2.44318,5.1591 -0.55682,3.35227 0.51136,5.20454 1.06818,1.85227 3.67045,1.85227 2.29546,0 3.78409,-1.07954 1.48864,-1.09091 1.81819,-2.93182 h -4.60228 l 0.68182,-4.10227 h 10.02273 l -0.51136,3.07954 q -0.51137,3.125 -2.20455,5.36364 -1.68182,2.22727 -4.20455,3.42045 -2.51136,1.18182 -5.51136,1.18182 -3.32954,0 -5.61364,-1.44318 -2.27272,-1.45455 -3.23863,-4.125 -0.96591,-2.67045 -0.36364,-6.35227 0.63637,-3.80682 2.55682,-6.48864 1.93182,-2.68182 4.69318,-4.09091 2.76137,-1.40909 5.875,-1.40909 2.68182,0 4.69318,1.01136 2.01137,1.01137 3.09091,2.80682 1.09091,1.78409 0.97728,4.10228 z"
         style="font-style:italic;font-weight:800;font-family:Inter;-inkscape-font-specification:'Inter Ultra-Bold Italic';fill:#ffffff"
         id="path976" /><path
         d="m 324.11644,392.43409 -3.86364,23.27273 h -5.625 l 3.86364,-23.27273 z"
         style="font-style:italic;font-weight:800;font-family:Inter;-inkscape-font-specification:'Inter Ultra-Bold Italic';fill:#ffffff"
         id="path978" /><path
         d="m 323.77551,415.70682 3.86363,-23.27273 h 16.22728 l -0.77273,4.56818 h -10.60227 l -0.77273,4.77273 h 9.77273 l -0.77273,4.57955 h -9.77273 l -0.77273,4.78409 h 10.60228 l -0.77273,4.56818 z"
         style="font-style:italic;font-weight:800;font-family:Inter;-inkscape-font-specification:'Inter Ultra-Bold Italic';fill:#ffffff"
         id="path980" /><path
         d="m 358.78687,399.45682 q 0.0909,-1.28409 -0.68182,-1.98864 -0.76136,-0.70454 -2.40909,-0.70454 -1.63636,0 -2.55682,0.61363 -0.90909,0.61364 -1.07954,1.57955 -0.21591,1.02273 0.625,1.61364 0.84091,0.59091 2.375,0.93181 l 1.90909,0.45455 q 3.30682,0.75 4.86364,2.48864 1.55681,1.72727 1.0909,4.51136 -0.55681,3.31818 -3.30681,5.18182 -2.75,1.86363 -7.10228,1.86363 -2.90909,0 -4.94318,-0.875 -2.02273,-0.88636 -2.93182,-2.67045 -0.90909,-1.79545 -0.48863,-4.5 h 5.375 q -0.19318,1.68182 0.81818,2.54545 1.02273,0.85228 2.875,0.85228 1.71591,0 2.77273,-0.67046 1.05681,-0.67045 1.22727,-1.73863 0.17045,-0.97728 -0.64773,-1.56819 -0.80682,-0.60227 -2.65909,-1.02272 l -2.32954,-0.56818 q -2.88637,-0.70455 -4.36364,-2.25 -1.47727,-1.54546 -1.05682,-4.19319 0.36364,-2.17045 1.79546,-3.79545 1.44318,-1.625 3.64772,-2.52273 2.21591,-0.90909 4.875,-0.90909 2.70455,0 4.54546,0.92046 1.85227,0.90909 2.67045,2.56818 0.82955,1.64772 0.47727,3.85227 z"
         style="font-style:italic;font-weight:800;font-family:Inter;-inkscape-font-specification:'Inter Ultra-Bold Italic';fill:#ffffff"
         id="path982" /></g><g
       aria-label="SELF-DRIVING
COMMUNITY PROJECT"
       transform="matrix(0.26458333,0,0,0.26458333,106.38278,-59.497359)"
       id="text6383-7-6"
       style="font-size:24px;line-height:1.25;letter-spacing:0px;word-spacing:0px;white-space:pre;shape-inside:url(#rect6385-6-3);display:inline"><path
         d="m 225.564,396.11556 q 0.0682,-0.96306 -0.51136,-1.49147 -0.57103,-0.52841 -1.80682,-0.52841 -1.22728,0 -1.91762,0.46023 -0.68181,0.46022 -0.80966,1.18465 -0.16193,0.76705 0.46875,1.21023 0.63069,0.44318 1.78125,0.69887 l 1.43182,0.3409 q 2.48012,0.5625 3.64773,1.86648 1.16761,1.29546 0.81818,3.38352 -0.41761,2.48864 -2.48011,3.88637 -2.0625,1.39773 -5.32671,1.39773 -2.18181,0 -3.70738,-0.65625 -1.51705,-0.66478 -2.19887,-2.00285 -0.68181,-1.34659 -0.36647,-3.375 h 4.03125 q -0.14489,1.26137 0.61363,1.9091 0.76705,0.6392 2.15625,0.6392 1.28693,0 2.07955,-0.50284 0.79261,-0.50284 0.92045,-1.30398 0.12784,-0.73295 -0.48579,-1.17613 -0.60512,-0.45171 -1.99432,-0.76705 l -1.74716,-0.42614 q -2.16477,-0.52841 -3.27273,-1.6875 -1.10795,-1.15909 -0.79261,-3.14488 0.27273,-1.62784 1.34659,-2.84659 1.08239,-1.21875 2.7358,-1.89205 1.66193,-0.68182 3.65625,-0.68182 2.0284,0 3.40909,0.69034 1.3892,0.68182 2.00284,1.92614 0.62216,1.2358 0.35795,2.8892 z"
         style="font-style:italic;font-weight:800;font-family:Inter;-inkscape-font-specification:'Inter Ultra-Bold Italic';text-align:end;text-anchor:end;fill:#ffffff"
         id="path1242" /><path
         d="m 229.97024,408.30306 2.89773,-17.45454 h 12.17045 l -0.57954,3.42614 h -7.95171 l -0.57954,3.57954 h 7.32954 l -0.57954,3.43466 h -7.32955 l -0.57954,3.58807 h 7.9517 l -0.57954,3.42613 z"
         style="font-style:italic;font-weight:800;font-family:Inter;-inkscape-font-specification:'Inter Ultra-Bold Italic';text-align:end;text-anchor:end;fill:#ffffff"
         id="path1244" /><path
         d="m 244.78274,408.30306 2.89773,-17.45454 h 4.21875 l -2.31818,14.02841 h 7.26136 l -0.57955,3.42613 z"
         style="font-style:italic;font-weight:800;font-family:Inter;-inkscape-font-specification:'Inter Ultra-Bold Italic';text-align:end;text-anchor:end;fill:#ffffff"
         id="path1246" /><path
         d="m 258.44465,408.30306 2.89773,-17.45454 h 11.91477 l -0.57954,3.42614 h -7.69603 l -0.57954,3.57954 h 6.9375 l -0.57955,3.43466 h -6.9375 l -1.15909,7.0142 z"
         style="font-style:italic;font-weight:800;font-family:Inter;-inkscape-font-specification:'Inter Ultra-Bold Italic';text-align:end;text-anchor:end;fill:#ffffff"
         id="path1248" /><path
         d="m 282.55544,397.965 -0.51989,3.21306 h -8.07102 l 0.51988,-3.21306 z"
         style="font-style:italic;font-weight:800;font-family:Inter;-inkscape-font-specification:'Inter Ultra-Bold Italic';text-align:end;text-anchor:end;fill:#ffffff"
         id="path1250" /><path
         d="m 290.33666,408.30306 h -6.54545 l 2.89773,-17.45454 h 6.34943 q 2.66761,0 4.44034,1.08239 1.77273,1.07386 2.50568,3.0767 0.74148,2.00284 0.28125,4.78125 -0.44318,2.67614 -1.78125,4.58523 -1.33807,1.90909 -3.41761,2.92329 -2.07102,1.00568 -4.73012,1.00568 z m -1.73011,-3.59659 h 1.99432 q 2.19886,0 3.62216,-1.22727 1.43182,-1.22727 1.90057,-4.125 0.46022,-2.75284 -0.50284,-3.8267 -0.96307,-1.08239 -3.21307,-1.08239 h -2.09659 z"
         style="font-style:italic;font-weight:800;font-family:Inter;-inkscape-font-specification:'Inter Ultra-Bold Italic';text-align:end;text-anchor:end;fill:#ffffff"
         id="path1252" /><path
         d="m 301.31395,408.30306 2.89772,-17.45454 h 7.21023 q 2.94886,0 4.39773,1.55966 1.44886,1.55966 0.99716,4.25284 -0.28978,1.80682 -1.29546,3.0767 -1.00568,1.26137 -2.55682,1.91762 l 2.52273,6.64772 h -4.60227 l -2.19887,-5.97443 h -2.15625 l -0.99715,5.97443 z m 5.76988,-9.29829 h 2.07955 q 1.42329,0 2.25852,-0.5625 0.83523,-0.57102 1.03125,-1.78125 0.38352,-2.41193 -2.49716,-2.41193 h -2.07954 z"
         style="font-style:italic;font-weight:800;font-family:Inter;-inkscape-font-specification:'Inter Ultra-Bold Italic';text-align:end;text-anchor:end;fill:#ffffff"
         id="path1254" /><path
         d="m 324.50429,390.84852 -2.89773,17.45454 h -4.21875 l 2.89773,-17.45454 z"
         style="font-style:italic;font-weight:800;font-family:Inter;-inkscape-font-specification:'Inter Ultra-Bold Italic';text-align:end;text-anchor:end;fill:#ffffff"
         id="path1256" /><path
         d="m 331.10939,390.84852 1.78125,12.78409 h 0.14488 l 6.02557,-12.78409 h 4.72159 l -8.78693,17.45454 h -5.61648 l -2.99147,-17.45454 z"
         style="font-style:italic;font-weight:800;font-family:Inter;-inkscape-font-specification:'Inter Ultra-Bold Italic';text-align:end;text-anchor:end;fill:#ffffff"
         id="path1258" /><path
         d="m 349.88495,390.84852 -2.89773,17.45454 h -4.21875 l 2.89773,-17.45454 z"
         style="font-style:italic;font-weight:800;font-family:Inter;-inkscape-font-specification:'Inter Ultra-Bold Italic';text-align:end;text-anchor:end;fill:#ffffff"
         id="path1260" /><path
         d="m 367.38209,390.84852 -2.89772,17.45454 h -3.57955 L 355.6463,398.2292 h -0.11932 l -1.67898,10.07386 h -4.21875 l 2.89773,-17.45454 h 3.63068 l 5.21591,10.05682 h 0.14489 l 1.65341,-10.05682 z"
         style="font-style:italic;font-weight:800;font-family:Inter;-inkscape-font-specification:'Inter Ultra-Bold Italic';text-align:end;text-anchor:end;fill:#ffffff"
         id="path1262" /><path
         d="m 380.53265,396.55022 q -0.10227,-1.06534 -0.75,-1.65341 -0.6392,-0.58806 -1.90909,-0.58806 -1.90057,0 -3.33239,1.37216 -1.42329,1.37215 -1.83238,3.86931 -0.41762,2.51421 0.38352,3.90341 0.80114,1.38921 2.75284,1.38921 1.72159,0 2.83807,-0.80966 1.11648,-0.81818 1.36363,-2.19887 h -3.4517 l 0.51136,-3.0767 h 7.51705 l -0.38352,2.30966 q -0.38353,2.34375 -1.65341,4.02273 -1.26137,1.67045 -3.15341,2.56534 -1.88352,0.88636 -4.13352,0.88636 -2.49716,0 -4.21023,-1.08239 -1.70455,-1.0909 -2.42898,-3.09375 -0.72443,-2.00284 -0.27273,-4.7642 0.47728,-2.85511 1.91762,-4.86648 1.44886,-2.01136 3.51988,-3.06818 2.07103,-1.05682 4.40625,-1.05682 2.01137,0 3.51989,0.75853 1.50852,0.75852 2.31818,2.10511 0.81818,1.33807 0.73296,3.0767 z"
         style="font-style:italic;font-weight:800;font-family:Inter;-inkscape-font-specification:'Inter Ultra-Bold Italic';text-align:end;text-anchor:end;fill:#ffffff"
         id="path1264" /><path
         d="m 126.8111,427.54665 h -4.21023 q 0.0682,-1.32102 -0.63921,-2.08807 -0.70738,-0.77557 -2.07954,-0.77557 -1.97727,0 -3.375,1.45739 -1.39773,1.45739 -1.83239,4.05682 -0.40057,2.5142 0.40909,3.76704 0.80966,1.25284 2.56534,1.25284 1.5,0 2.59091,-0.7159 1.09091,-0.72444 1.51705,-1.96023 h 4.24432 q -0.31534,1.15909 -1.03125,2.29261 -0.71591,1.125 -1.81534,2.05398 -1.09091,0.92045 -2.53125,1.47443 -1.44034,0.55398 -3.20455,0.55398 -2.42045,0 -4.15909,-1.08239 -1.73864,-1.08238 -2.5142,-3.13636 -0.76705,-2.0625 -0.28978,-4.99432 0.46875,-2.83807 1.85796,-4.78125 1.3892,-1.94318 3.375,-2.94034 1.98579,-0.99716 4.24432,-0.99716 2.18181,0 3.76704,0.77557 1.59375,0.76704 2.41193,2.23295 0.82671,1.46591 0.69887,3.55398 z"
         style="font-style:italic;font-weight:800;font-family:Inter;-inkscape-font-specification:'Inter Ultra-Bold Italic';text-align:end;text-anchor:end;fill:#ffffff"
         id="path1266" /><path
         d="m 145.26279,430.22279 q -0.46875,2.82102 -1.86648,4.7642 -1.3892,1.93466 -3.38352,2.93182 -1.99432,0.99716 -4.27841,0.99716 -2.41193,0 -4.17614,-1.07387 -1.7642,-1.07386 -2.56534,-3.12784 -0.79261,-2.05397 -0.30682,-4.98579 0.46023,-2.82102 1.84944,-4.77273 1.39772,-1.9517 3.40056,-2.95739 2.01137,-1.0142 4.3125,-1.0142 2.40341,0 4.15909,1.08239 1.75569,1.08238 2.5483,3.14488 0.79261,2.0625 0.30682,5.01137 z m -4.21875,-0.49432 q 0.40057,-2.47159 -0.38352,-3.75852 -0.77557,-1.28694 -2.57387,-1.28694 -2.00284,0 -3.38352,1.45739 -1.37216,1.44886 -1.7983,4.08239 -0.44318,2.48863 0.38353,3.74147 0.8267,1.25284 2.59943,1.25284 1.97727,0 3.34091,-1.42329 1.37216,-1.43182 1.81534,-4.06534 z"
         style="font-style:italic;font-weight:800;font-family:Inter;-inkscape-font-specification:'Inter Ultra-Bold Italic';text-align:end;text-anchor:end;fill:#ffffff"
         id="path1268" /><path
         d="m 149.20882,421.22279 h 5.22443 l 2.64205,10.80681 h 0.20454 l 6.22159,-10.80681 h 5.22443 l -2.89772,17.45454 h -4.10796 l 1.78125,-10.72159 h -0.14488 l -5.94887,10.6108 h -2.61647 l -2.42046,-10.67046 h -0.14489 l -1.80681,10.78125 h -4.10796 z"
         style="font-style:italic;font-weight:800;font-family:Inter;-inkscape-font-specification:'Inter Ultra-Bold Italic';text-align:end;text-anchor:end;fill:#ffffff"
         id="path1270" /><path
         d="m 171.36792,421.22279 h 5.22443 l 2.64205,10.80681 h 0.20455 l 6.22159,-10.80681 h 5.22443 l -2.89773,17.45454 h -4.10795 l 1.78125,-10.72159 h -0.14489 l -5.94886,10.6108 h -2.61648 l -2.42046,-10.67046 h -0.14488 l -1.80682,10.78125 h -4.10795 z"
         style="font-style:italic;font-weight:800;font-family:Inter;-inkscape-font-specification:'Inter Ultra-Bold Italic';text-align:end;text-anchor:end;fill:#ffffff"
         id="path1272" /><path
         d="m 204.08669,421.22279 h 4.21022 l -1.86647,11.25852 q -0.31535,1.9517 -1.49148,3.39204 -1.16762,1.44035 -2.96591,2.23296 -1.78977,0.79261 -3.99716,0.79261 -2.21591,0 -3.74148,-0.79261 -1.52557,-0.79261 -2.20738,-2.23296 -0.68182,-1.44034 -0.36648,-3.39204 l 1.86648,-11.25852 h 4.21875 l -1.81534,10.89204 q -0.21307,1.35512 0.51988,2.24148 0.73296,0.87784 2.13921,0.87784 1.42329,0 2.44602,-0.87784 1.02273,-0.88636 1.23579,-2.24148 z"
         style="font-style:italic;font-weight:800;font-family:Inter;-inkscape-font-specification:'Inter Ultra-Bold Italic';text-align:end;text-anchor:end;fill:#ffffff"
         id="path1274" /><path
         d="m 225.79405,421.22279 -2.89773,17.45454 h -3.57954 l -5.25852,-10.07386 h -0.11932 l -1.67898,10.07386 h -4.21875 l 2.89773,-17.45454 h 3.63068 l 5.21591,10.05681 h 0.14488 l 1.65341,-10.05681 z"
         style="font-style:italic;font-weight:800;font-family:Inter;-inkscape-font-specification:'Inter Ultra-Bold Italic';text-align:end;text-anchor:end;fill:#ffffff"
         id="path1276" /><path
         d="m 232.65483,421.22279 -2.89772,17.45454 h -4.21875 l 2.89772,-17.45454 z"
         style="font-style:italic;font-weight:800;font-family:Inter;-inkscape-font-specification:'Inter Ultra-Bold Italic';text-align:end;text-anchor:end;fill:#ffffff"
         id="path1278" /><path
         d="m 234.14629,424.64892 0.57955,-3.42613 h 14.75284 l -0.57954,3.42613 h -5.29262 l -2.31818,14.02841 h -4.15909 l 2.31818,-14.02841 z"
         style="font-style:italic;font-weight:800;font-family:Inter;-inkscape-font-specification:'Inter Ultra-Bold Italic';text-align:end;text-anchor:end;fill:#ffffff"
         id="path1280" /><path
         d="m 250.6804,421.22279 h 4.71307 l 2.47159,7.30397 h 0.17897 l 4.88353,-7.30397 h 4.71306 l -8.30965,11.625 -0.9716,5.82954 h -4.19318 l 0.98012,-5.82954 z"
         style="font-style:italic;font-weight:800;font-family:Inter;-inkscape-font-specification:'Inter Ultra-Bold Italic';text-align:end;text-anchor:end;fill:#ffffff"
         id="path1282" /><path
         d="m 271.68039,438.67733 2.89772,-17.45454 h 7.21023 q 1.96875,0 3.2642,0.76704 1.30398,0.75852 1.84944,2.12216 0.54545,1.35511 0.24716,3.15341 -0.28978,1.81534 -1.30398,3.16193 -1.01421,1.34659 -2.59943,2.08807 -1.57671,0.74148 -3.59659,0.74148 h -2.8466 l -0.9034,5.42045 z m 5.67613,-8.74432 h 2.07102 q 1.44887,0 2.30114,-0.72443 0.8608,-0.73295 1.05682,-1.94318 0.19602,-1.21875 -0.42614,-1.92614 -0.61363,-0.71591 -2.03693,-0.71591 h -2.07954 z"
         style="font-style:italic;font-weight:800;font-family:Inter;-inkscape-font-specification:'Inter Ultra-Bold Italic';text-align:end;text-anchor:end;fill:#ffffff"
         id="path1284" /><path
         d="m 287.31961,438.67733 2.89772,-17.45454 h 7.21023 q 2.94886,0 4.39773,1.55966 1.44886,1.55965 0.99716,4.25284 -0.28978,1.80681 -1.29546,3.0767 -1.00568,1.26136 -2.55682,1.91761 l 2.52273,6.64773 h -4.60227 l -2.19886,-5.97443 h -2.15625 l -0.99716,5.97443 z m 5.76988,-9.29829 h 2.07955 q 1.42329,0 2.25852,-0.5625 0.83523,-0.57103 1.03125,-1.78125 0.38352,-2.41194 -2.49716,-2.41194 h -2.07954 z"
         style="font-style:italic;font-weight:800;font-family:Inter;-inkscape-font-specification:'Inter Ultra-Bold Italic';text-align:end;text-anchor:end;fill:#ffffff"
         id="path1286" /><path
         d="m 321.27416,430.22279 q -0.46875,2.82102 -1.86648,4.7642 -1.38921,1.93466 -3.38352,2.93182 -1.99432,0.99716 -4.27841,0.99716 -2.41193,0 -4.17614,-1.07387 -1.7642,-1.07386 -2.56534,-3.12784 -0.79261,-2.05397 -0.30682,-4.98579 0.46023,-2.82102 1.84943,-4.77273 1.39773,-1.9517 3.40057,-2.95739 2.01137,-1.0142 4.3125,-1.0142 2.40341,0 4.15909,1.08239 1.75568,1.08238 2.5483,3.14488 0.79261,2.0625 0.30682,5.01137 z m -4.21875,-0.49432 q 0.40056,-2.47159 -0.38353,-3.75852 -0.77556,-1.28694 -2.57386,-1.28694 -2.00284,0 -3.38352,1.45739 -1.37216,1.44886 -1.7983,4.08239 -0.44318,2.48863 0.38352,3.74147 0.82671,1.25284 2.59944,1.25284 1.97727,0 3.34091,-1.42329 1.37215,-1.43182 1.81534,-4.06534 z"
         style="font-style:italic;font-weight:800;font-family:Inter;-inkscape-font-specification:'Inter Ultra-Bold Italic';text-align:end;text-anchor:end;fill:#ffffff"
         id="path1288" /><path
         d="m 332.3111,421.22279 h 4.15909 l -1.99432,12.08522 q -0.28125,1.69603 -1.28693,2.95739 -0.99716,1.26136 -2.52273,1.96023 -1.51705,0.69034 -3.38352,0.69034 -1.62784,0 -2.87216,-0.57102 -1.24432,-0.57955 -1.84091,-1.77273 -0.59659,-1.20171 -0.28125,-3.07671 h 4.19318 q -0.27273,2.09659 1.54261,2.09659 1.88353,0 2.30114,-2.31818 z"
         style="font-style:italic;font-weight:800;font-family:Inter;-inkscape-font-specification:'Inter Ultra-Bold Italic';text-align:end;text-anchor:end;fill:#ffffff"
         id="path1290" /><path
         d="m 336.21449,438.67733 2.89773,-17.45454 h 12.17045 l -0.57955,3.42613 h -7.9517 l -0.57955,3.57955 h 7.32955 l -0.57955,3.43466 h -7.32954 l -0.57955,3.58807 h 7.95171 l -0.57955,3.42613 z"
         style="font-style:italic;font-weight:800;font-family:Inter;-inkscape-font-specification:'Inter Ultra-Bold Italic';text-align:end;text-anchor:end;fill:#ffffff"
         id="path1292" /><path
         d="m 368.70312,427.54665 h -4.21022 q 0.0682,-1.32102 -0.63921,-2.08807 -0.70738,-0.77557 -2.07954,-0.77557 -1.97728,0 -3.375,1.45739 -1.39773,1.45739 -1.83239,4.05682 -0.40057,2.5142 0.40909,3.76704 0.80966,1.25284 2.56534,1.25284 1.5,0 2.59091,-0.7159 1.09091,-0.72444 1.51705,-1.96023 h 4.24432 q -0.31535,1.15909 -1.03125,2.29261 -0.71591,1.125 -1.81535,2.05398 -1.0909,0.92045 -2.53125,1.47443 -1.44034,0.55398 -3.20454,0.55398 -2.42046,0 -4.15909,-1.08239 -1.73864,-1.08238 -2.51421,-3.13636 -0.76704,-2.0625 -0.28977,-4.99432 0.46875,-2.83807 1.85796,-4.78125 1.3892,-1.94318 3.375,-2.94034 1.98579,-0.99716 4.24431,-0.99716 2.18182,0 3.76705,0.77557 1.59375,0.76704 2.41193,2.23295 0.82671,1.46591 0.69886,3.55398 z"
         style="font-style:italic;font-weight:800;font-family:Inter;-inkscape-font-specification:'Inter Ultra-Bold Italic';text-align:end;text-anchor:end;fill:#ffffff"
         id="path1294" /><path
         d="m 371.02128,424.64892 0.57954,-3.42613 h 14.75285 l -0.57955,3.42613 h -5.29261 l -2.31819,14.02841 h -4.15909 l 2.31819,-14.02841 z"
         style="font-style:italic;font-weight:800;font-family:Inter;-inkscape-font-specification:'Inter Ultra-Bold Italic';text-align:end;text-anchor:end;fill:#ffffff"
         id="path1296" /></g></g></svg>
